<svg class="h-[120px] md:h-[52vh] w-[100%]" width="100%" viewBox="0 0 805 728" fill="none" xmlns="http://www.w3.org/2000/svg"><path fill-rule="evenodd" clip-rule="evenodd" d="M506.845 1.28331C391.486 -10.0798 287.922 55.5589 205.447 137.077C104.878 236.478 -41.7731 359.772 11.6354 490.745C64.9193 621.412 263.594 559.999 396.798 606.324C495.384 640.61 574.81 759.033 671.743 720.314C770.803 680.746 787.063 550.655 801.084 444.838C813.138 353.867 792.737 266.383 742.021 189.93C683.559 101.801 612.036 11.6447 506.845 1.28331Z" fill="url(#paint0_linear_2851_2519)" fill-opacity="0.4"></path><g clip-path="url(#clip0_2851_2519)"><path d="M596.786 629.633C587.434 621.712 581.753 609.198 583.243 597.017C584.733 584.835 593.96 573.636 605.929 571.049C617.898 568.462 631.542 575.623 635.177 587.343C637.178 564.748 639.483 541.206 651.468 521.964C662.319 504.542 681.114 492.075 701.484 489.845C721.854 487.614 743.301 496.038 756.005 512.154C768.708 528.269 771.819 551.698 762.921 570.201C756.367 583.83 744.291 593.974 731.639 602.226C690.755 628.668 641.72 639.421 593.556 632.506L596.786 629.633Z" fill="url(#paint1_linear_2851_2519)"></path><path d="M735.861 496.505C719.054 510.227 703.634 525.575 689.827 542.325C668.218 568.45 650.731 597.741 637.977 629.177C637.043 631.471 640.758 632.469 641.682 630.201C662.55 579.111 695.864 534.08 738.578 499.228C740.496 497.662 737.764 494.952 735.861 496.505Z" fill="white"></path><path d="M272.662 627.481C285.507 616.601 293.31 599.414 291.263 582.682C289.217 565.95 276.544 550.569 260.105 547.016C243.665 543.462 224.926 553.298 219.932 569.395C217.184 538.361 214.018 506.026 197.557 479.598C182.652 455.668 156.837 438.545 128.859 435.481C100.881 432.418 71.4242 443.988 53.9754 466.123C36.5266 488.258 32.2544 520.437 44.475 545.85C53.4776 564.571 70.0635 578.503 87.4413 589.838C142.883 625.999 211.658 641.08 277.098 631.427" fill="url(#paint2_linear_2851_2519)"></path><path d="M81.6422 444.629C104.727 463.477 125.906 484.557 144.871 507.564C163.839 530.547 180.538 555.32 194.734 581.536C202.669 596.241 209.797 611.37 216.086 626.855C217.369 630.005 212.266 631.376 210.998 628.261C199.858 600.962 186.075 574.823 169.848 550.218C153.699 525.704 135.216 502.816 114.659 481.879C103.032 470.042 90.7636 458.856 77.9108 448.369C75.2763 446.219 79.0295 442.497 81.6422 444.629Z" fill="white"></path><path d="M561.863 633.625H255.393V318.432C255.393 251.373 309.82 196.816 376.721 196.816H440.535C507.435 196.816 561.863 251.373 561.863 318.432V633.625Z" fill="#D9E2E9"></path><path d="M498.05 633.625H255.393V318.432C255.326 292.737 263.444 267.69 278.564 246.94C279.121 246.179 279.677 245.427 280.25 244.684C287.564 235.069 296.267 226.601 306.073 219.56C306.627 219.156 307.183 218.759 307.747 218.362C315.952 212.671 324.828 208.018 334.173 204.51C334.728 204.299 335.293 204.088 335.857 203.885C344.309 200.862 353.069 198.791 361.978 197.711C362.53 197.635 363.097 197.576 363.664 197.517C372.345 196.587 381.1 196.587 389.781 197.517C390.347 197.576 390.914 197.635 391.473 197.712C400.378 198.792 409.137 200.863 417.586 203.885C418.151 204.088 418.716 204.299 419.272 204.51C428.502 207.974 437.273 212.558 445.391 218.158C445.955 218.547 446.519 218.944 447.075 219.341C452.572 223.273 457.735 227.655 462.511 232.44C466.341 236.278 469.911 240.369 473.195 244.686C473.767 245.427 474.322 246.179 474.879 246.939C490 267.689 498.117 292.736 498.05 318.432V633.625Z" fill="#393939"></path><path d="M478.319 492.651C485.738 492.651 491.753 486.622 491.753 479.185C491.753 471.748 485.738 465.719 478.319 465.719C470.899 465.719 464.884 471.748 464.884 479.185C464.884 486.622 470.899 492.651 478.319 492.651Z" fill="#040B11"></path><path d="M536.757 624.185H526.463L521.565 584.385L536.759 584.386L536.757 624.185Z" fill="#FFDCDC"></path><path d="M519.11 621.236H538.962V633.765H506.61C506.61 632.12 506.934 630.491 507.562 628.971C508.19 627.451 509.111 626.069 510.271 624.906C511.432 623.742 512.81 622.819 514.327 622.19C515.843 621.56 517.469 621.236 519.11 621.236Z" fill="#2F2E41"></path><path d="M587.975 624.185H577.681L572.784 584.385L587.977 584.386L587.975 624.185Z" fill="#FFDCDC"></path><path d="M570.328 621.236H590.181V633.765H557.829C557.829 632.12 558.152 630.491 558.78 628.971C559.408 627.451 560.329 626.069 561.49 624.906C562.65 623.742 564.028 622.819 565.545 622.19C567.061 621.56 568.687 621.236 570.328 621.236Z" fill="#2F2E41"></path><path d="M485.118 481.853C484.377 480.759 483.885 479.516 483.675 478.211C483.466 476.906 483.545 475.571 483.906 474.299C484.267 473.028 484.902 471.852 485.765 470.853C486.629 469.854 487.701 469.057 488.905 468.519L523.898 371.843L541.117 381.262L501.162 473.649C501.931 475.736 501.909 478.034 501.1 480.107C500.292 482.18 498.753 483.883 496.775 484.894C494.798 485.905 492.519 486.154 490.37 485.594C488.221 485.033 486.353 483.702 485.118 481.853Z" fill="#FFDCDC"></path><path d="M582.717 500.018C581.573 499.361 580.587 498.46 579.828 497.379C579.069 496.298 578.556 495.064 578.324 493.763C578.092 492.461 578.148 491.125 578.488 489.848C578.827 488.571 579.442 487.383 580.288 486.37L569.448 384.103L589.043 385.001L593.548 485.593C595.153 487.132 596.138 489.207 596.318 491.425C596.498 493.643 595.86 495.85 594.525 497.628C593.19 499.406 591.25 500.632 589.074 501.072C586.898 501.513 584.636 501.138 582.717 500.018Z" fill="#FFDCDC"></path><path d="M551.456 353.936C562.846 353.936 572.079 344.681 572.079 333.264C572.079 321.848 562.846 312.593 551.456 312.593C540.067 312.593 530.834 321.848 530.834 333.264C530.834 344.681 540.067 353.936 551.456 353.936Z" fill="#FFDCDC"></path><path d="M582.586 476.76H520.413L520.487 476.275C520.599 475.55 531.568 403.525 523.478 379.962C522.666 377.646 522.738 375.111 523.678 372.845C524.619 370.579 526.363 368.742 528.574 367.688C540.137 362.229 562.334 355.508 581.069 371.819C583.826 374.259 585.979 377.308 587.357 380.726C588.736 384.143 589.302 387.835 589.012 391.51L582.586 476.76Z" fill="url(#paint3_linear_2851_2519)"></path><path d="M532.354 414.169L504.363 408.477L517.483 377.311C518.268 374.292 520.216 371.709 522.899 370.128C525.581 368.547 528.78 368.097 531.794 368.877C534.807 369.656 537.389 371.602 538.972 374.288C540.556 376.973 541.013 380.178 540.242 383.2L532.354 414.169Z" fill="url(#paint4_linear_2851_2519)"></path><path d="M568.203 424.738L566.521 386.072C565.244 378.803 569.396 371.932 575.78 370.809C582.166 369.69 588.401 374.731 589.683 382.053L596.008 418.183L568.203 424.738Z" fill="url(#paint5_linear_2851_2519)"></path><path d="M580.517 472.131C590.521 510.322 591.612 558.878 588.913 611.842L575.479 610.159L551.129 509.163L537.695 611.842L522.581 611.001C518.066 555.428 513.67 507.719 520.902 476.339L580.517 472.131Z" fill="#2F2E41"></path><path d="M565.045 349.24C561.198 353.348 554.053 351.142 553.552 345.53C553.512 345.095 553.515 344.656 553.56 344.221C553.819 341.735 555.252 339.478 554.908 336.854C554.831 336.201 554.588 335.578 554.203 335.045C551.137 330.93 543.941 336.886 541.047 333.161C539.273 330.876 541.359 327.28 539.997 324.727C538.2 321.357 532.878 323.02 529.54 321.174C525.827 319.121 526.049 313.41 528.494 309.936C531.475 305.7 536.702 303.439 541.863 303.113C547.025 302.788 552.152 304.186 556.971 306.069C562.446 308.208 567.876 311.164 571.245 315.989C575.343 321.858 575.737 329.748 573.688 336.611C572.441 340.786 568.187 345.885 565.045 349.24Z" fill="#2F2E41"></path><path d="M742.792 634.167H122.886C122.622 634.166 122.368 634.06 122.181 633.872C121.995 633.684 121.89 633.43 121.89 633.165C121.89 632.899 121.995 632.645 122.181 632.457C122.368 632.269 122.622 632.163 122.886 632.163H742.792C743.056 632.163 743.31 632.269 743.497 632.457C743.683 632.645 743.788 632.899 743.788 633.165C743.788 633.43 743.683 633.684 743.497 633.872C743.31 634.06 743.056 634.166 742.792 634.167Z" fill="#D9D9D9"></path><path d="M431.299 542.308H322.145C320.707 542.316 319.325 541.751 318.302 540.739C317.279 539.727 316.698 538.349 316.687 536.908V292.691C316.698 291.25 317.279 289.873 318.302 288.86C319.325 287.848 320.707 287.284 322.145 287.292H431.299C432.736 287.284 434.118 287.848 435.141 288.86C436.164 289.873 436.745 291.25 436.756 292.691V536.908C436.745 538.349 436.164 539.727 435.141 540.739C434.118 541.751 432.736 542.316 431.299 542.308Z" fill="white"></path><path d="M436.756 366.313H316.687V367.996H436.756V366.313Z" fill="#BFDBFE"></path><path d="M437.176 462.352H317.107V464.036H437.176V462.352Z" fill="#BFDBFE"></path><path d="M356.15 287.292H354.471V543.149H356.15V287.292Z" fill="#BFDBFE"></path><path d="M398.132 287.292H396.453V543.149H398.132V287.292Z" fill="#BFDBFE"></path></g><defs><linearGradient id="paint0_linear_2851_2519" x1="-49.599" y1="-1271.41" x2="1010.95" y2="1309.14" gradientUnits="userSpaceOnUse"><stop stop-color="#86C1F3"></stop><stop offset="1" stop-color="white"></stop></linearGradient><linearGradient id="paint1_linear_2851_2519" x1="675.502" y1="489.491" x2="675.502" y2="634.551" gradientUnits="userSpaceOnUse"><stop stop-color="#86C1F3"></stop><stop offset="1" stop-color="white"></stop></linearGradient><linearGradient id="paint2_linear_2851_2519" x1="164.546" y1="434.996" x2="109.316" y2="624.359" gradientUnits="userSpaceOnUse"><stop stop-color="#1887E4"></stop><stop offset="1" stop-color="white"></stop></linearGradient><linearGradient id="paint3_linear_2851_2519" x1="554.749" y1="361.562" x2="554.749" y2="476.76" gradientUnits="userSpaceOnUse"><stop stop-color="#2E94EA"></stop><stop offset="0.0001" stop-color="#2E94EA"></stop><stop offset="1" stop-color="#1887E4"></stop></linearGradient><linearGradient id="paint4_linear_2851_2519" x1="522.486" y1="368.503" x2="522.486" y2="414.169" gradientUnits="userSpaceOnUse"><stop stop-color="#2E94EA"></stop><stop offset="0.0001" stop-color="#2E94EA"></stop><stop offset="1" stop-color="#1887E4"></stop></linearGradient><linearGradient id="paint5_linear_2851_2519" x1="581.149" y1="370.654" x2="581.149" y2="424.738" gradientUnits="userSpaceOnUse"><stop stop-color="#2E94EA"></stop><stop offset="0.0001" stop-color="#2E94EA"></stop><stop offset="1" stop-color="#1887E4"></stop></linearGradient><clipPath id="clip0_2851_2519"><rect width="730.491" height="437.767" fill="white" transform="translate(37.5049 196.816)"></rect></clipPath></defs></svg>